<?xml version="1.0" standalone="no"?>
<!DOCTYPE svg PUBLIC "-//W3C//DTD SVG 20010904//EN"
 "http://www.w3.org/TR/2001/REC-SVG-20010904/DTD/svg10.dtd">
<svg version="1.0" xmlns="http://www.w3.org/2000/svg"
 width="832.000000pt" height="832.000000pt" viewBox="0 0 832.000000 832.000000"
 preserveAspectRatio="xMidYMid meet">
<metadata>
Created by potrace 1.14, written by Peter Selinger 2001-2017
</metadata>
<g transform="translate(0.000000,832.000000) scale(0.100000,-0.100000)"
fill="#000000" stroke="none">
<path d="M1020 8297 c-78 -24 -159 -63 -173 -84 -4 -7 -13 -13 -19 -13 -16 0
-115 -107 -144 -156 -25 -42 -60 -126 -71 -169 -16 -63 -10 -223 12 -300 1 -5
3 -13 4 -18 0 -4 16 -38 35 -76 40 -79 99 -150 165 -201 25 -19 48 -38 49 -42
2 -5 8 -8 14 -8 11 0 161 -101 166 -112 2 -5 8 -8 13 -8 5 0 38 -20 75 -45 36
-25 69 -45 74 -45 4 0 10 -4 12 -8 2 -4 50 -39 108 -77 58 -38 107 -71 110
-74 3 -4 17 -12 33 -20 15 -8 27 -18 27 -23 0 -4 4 -8 9 -8 5 0 45 -25 90 -55
45 -30 85 -55 90 -55 5 0 11 -4 13 -8 2 -4 165 -116 363 -247 198 -132 362
-243 363 -247 2 -5 7 -8 12 -8 4 0 56 -33 115 -72 59 -40 114 -77 124 -83 9
-5 43 -28 75 -50 32 -22 65 -45 75 -50 9 -6 137 -91 284 -190 147 -99 276
-185 285 -190 9 -6 45 -29 79 -53 34 -23 66 -42 72 -42 5 0 11 -4 13 -8 4 -11
174 -102 268 -142 67 -30 252 -96 290 -105 8 -2 53 -13 100 -24 47 -11 101
-23 120 -26 19 -3 46 -7 60 -10 61 -11 118 -17 213 -21 105 -5 294 -7 312 -4
6 1 15 1 20 0 12 -2 206 -2 220 0 6 1 15 1 20 0 23 -5 216 -3 221 3 3 3 12 3
20 0 22 -8 1154 -9 1154 -1 0 4 6 5 14 2 7 -3 58 -6 112 -8 86 -2 107 -6 158
-31 69 -35 128 -100 156 -172 24 -65 22 -170 -5 -228 -15 -32 -96 -149 -138
-200 -4 -5 -80 -107 -168 -225 -88 -118 -165 -222 -172 -230 -7 -8 -50 -67
-97 -130 -46 -63 -87 -117 -90 -120 -3 -3 -43 -57 -90 -120 -47 -63 -89 -120
-95 -126 -5 -6 -17 -21 -25 -34 -15 -22 -77 -105 -111 -150 -11 -14 -78 -104
-150 -200 -71 -96 -138 -185 -147 -197 -9 -12 -25 -32 -34 -45 -115 -157 -160
-216 -173 -229 -8 -9 -15 -21 -15 -27 0 -6 -6 -15 -13 -19 -7 -4 -20 -19 -29
-33 -8 -14 -26 -36 -38 -50 -12 -14 -28 -37 -36 -51 -7 -15 -19 -29 -27 -32
-13 -5 -258 148 -265 165 -2 5 -8 8 -12 8 -5 0 -28 13 -52 28 -300 199 -329
216 -484 292 -83 41 -238 104 -279 114 -5 2 -17 5 -25 8 -30 11 -132 39 -153
44 -12 2 -44 8 -72 14 -27 5 -61 11 -75 14 -79 13 -100 16 -150 22 -30 4 -548
8 -1150 9 l-1095 2 -85 56 c-46 31 -98 61 -115 67 -43 14 -76 73 -79 143 0 15
-4 27 -7 27 -4 0 -1 32 7 70 9 49 24 88 51 128 20 31 40 59 43 62 3 3 48 61
100 130 52 69 128 169 170 223 41 54 80 106 85 115 6 9 13 19 16 22 3 3 34 43
69 90 36 47 67 87 70 90 3 3 17 21 30 40 13 19 27 37 30 40 3 3 17 21 30 40
14 19 35 46 47 60 13 14 23 28 23 32 0 3 6 13 13 20 7 7 45 56 84 108 40 52
76 100 81 105 34 41 93 128 110 162 83 162 48 369 -85 500 -74 73 -104 97
-140 111 -34 15 -108 9 -130 -10 -13 -10 -326 -425 -421 -557 -9 -13 -23 -29
-29 -36 -7 -8 -13 -18 -13 -23 0 -6 -4 -12 -8 -14 -5 -1 -48 -57 -97 -123 -49
-66 -92 -121 -97 -123 -4 -2 -8 -10 -8 -18 0 -8 -7 -17 -15 -20 -8 -4 -15 -12
-15 -20 0 -8 -3 -14 -7 -14 -5 0 -24 -24 -43 -53 -19 -28 -37 -54 -40 -57 -3
-3 -21 -25 -40 -50 -19 -25 -38 -46 -42 -48 -5 -2 -8 -10 -8 -18 0 -8 -4 -14
-10 -14 -5 0 -10 -6 -10 -14 0 -8 -4 -16 -8 -18 -4 -1 -24 -25 -45 -53 -20
-27 -43 -59 -52 -70 -77 -100 -185 -250 -185 -256 0 -4 -6 -14 -12 -21 -7 -7
-23 -34 -36 -60 -126 -258 -132 -567 -16 -825 29 -64 104 -183 116 -183 4 0 8
-4 8 -10 0 -14 128 -139 178 -175 67 -47 91 -61 172 -101 76 -37 312 -190 318
-206 2 -4 8 -8 14 -8 12 0 462 -300 466 -312 2 -4 8 -8 14 -8 7 0 362 -232
403 -263 34 -26 900 -597 906 -597 4 0 9 -3 11 -8 3 -6 611 -415 695 -467 18
-11 56 -36 85 -56 29 -20 163 -110 298 -199 151 -100 272 -188 315 -229 87
-84 172 -151 191 -151 8 0 14 -4 14 -8 0 -20 211 -102 310 -121 35 -6 404 -10
1020 -11 841 0 973 2 1025 15 198 52 359 212 412 410 17 67 22 101 21 174 0
47 -3 90 -6 96 -3 5 -7 18 -8 30 -4 39 -45 134 -83 191 -45 71 -106 132 -169
173 -26 17 -52 34 -58 39 -6 5 -37 27 -70 48 -32 21 -61 41 -64 44 -14 14
-102 70 -110 70 -6 0 -10 3 -10 8 0 4 -16 16 -35 26 -19 11 -35 23 -35 28 0 4
-5 8 -11 8 -6 0 -25 11 -43 25 -18 14 -38 25 -44 25 -6 0 -12 4 -14 8 -5 14
-187 133 -235 154 -64 28 -79 31 -173 33 -159 4 -266 -54 -381 -204 -52 -68
-62 -111 -37 -166 10 -21 87 -88 123 -105 24 -11 160 -106 163 -112 2 -5 7 -8
12 -8 4 0 81 -49 170 -110 89 -60 166 -110 170 -110 5 0 10 -3 12 -7 2 -5 38
-31 81 -60 43 -28 74 -53 70 -56 -4 -2 -354 -3 -778 -2 -678 2 -775 4 -812 18
-182 69 -266 272 -182 439 15 29 663 901 773 1039 12 15 29 37 38 50 9 13 24
33 33 44 8 11 38 52 67 90 29 39 56 75 60 80 8 9 235 312 289 385 11 14 29 38
41 55 13 16 76 99 140 185 64 85 121 160 125 165 5 6 26 35 48 65 22 30 42 57
45 60 3 3 23 30 45 60 22 30 44 60 50 66 5 6 21 27 35 47 14 20 28 37 33 37 4
0 7 4 7 10 0 9 78 116 108 148 6 7 12 16 12 20 0 4 13 21 28 39 15 18 50 63
77 100 28 37 53 70 57 71 5 2 8 10 8 17 0 7 4 15 8 17 4 2 41 48 82 103 41 55
77 102 80 105 9 7 119 174 118 180 0 3 12 29 27 58 14 29 28 61 30 72 2 10 8
27 13 37 9 18 25 89 38 168 13 83 6 259 -16 345 -6 25 -13 54 -15 64 -30 128
-129 289 -248 403 -40 37 -128 104 -197 148 -69 44 -126 83 -128 87 -2 5 -10
8 -18 8 -8 0 -14 5 -14 10 0 6 -4 10 -9 10 -9 0 -278 177 -314 206 -9 8 -22
14 -27 14 -6 0 -10 5 -10 10 0 6 -5 10 -11 10 -12 0 -162 101 -167 113 -2 4
-8 7 -13 7 -5 0 -52 29 -104 65 -53 36 -100 65 -105 65 -6 0 -10 3 -10 8 0 4
-23 20 -50 37 -28 16 -50 33 -50 37 0 4 -4 8 -10 8 -5 0 -193 122 -417 272
-224 149 -628 418 -898 597 -269 179 -492 328 -495 331 -7 7 -41 28 -60 37 -8
4 -24 15 -34 25 -11 10 -26 18 -33 18 -7 0 -13 5 -13 10 0 6 -6 10 -14 10 -8
0 -16 4 -18 8 -2 6 -219 154 -289 197 -9 5 -50 32 -90 60 -41 27 -78 52 -84
54 -5 2 -12 7 -15 10 -3 3 -78 55 -168 114 -161 106 -225 141 -332 177 -55 19
-68 22 -165 40 -27 5 -475 9 -995 9 l-945 0 -75 -22z m1975 -629 c81 -43 111
-78 177 -212 24 -47 30 -139 13 -188 -11 -32 -87 -155 -105 -168 -3 -3 -42
-52 -85 -110 -44 -58 -84 -110 -90 -117 -5 -6 -28 -37 -50 -67 -22 -30 -43
-55 -47 -56 -9 0 -1387 917 -1405 936 -10 10 150 12 765 11 l777 -2 50 -27z
m1205 -794 c157 -104 287 -192 288 -196 2 -5 10 -8 18 -8 8 0 14 -4 14 -10 0
-5 6 -10 14 -10 8 0 16 -3 18 -8 2 -4 62 -45 133 -92 72 -46 132 -87 135 -90
3 -4 10 -9 15 -11 20 -8 220 -143 223 -151 2 -4 9 -8 16 -8 7 0 21 -9 31 -20
10 -11 22 -20 27 -20 6 0 20 -8 33 -17 12 -10 31 -23 41 -30 11 -7 62 -40 114
-74 52 -35 97 -65 100 -68 3 -3 17 -12 33 -20 15 -8 27 -18 27 -23 0 -4 5 -8
10 -8 6 0 16 -5 23 -10 7 -6 41 -29 77 -51 36 -23 67 -45 68 -50 2 -5 7 -9 12
-9 10 0 156 -96 163 -107 3 -4 -261 -8 -586 -7 -519 1 -673 5 -746 19 -10 2
-34 6 -52 9 -64 10 -188 45 -256 71 -100 39 -253 116 -253 127 0 5 -4 7 -8 4
-5 -3 -18 4 -30 14 -12 11 -25 20 -30 20 -4 0 -17 8 -28 18 -10 9 -98 70 -194
134 -170 114 -292 197 -298 203 -1 1 9 13 23 26 13 13 25 29 25 36 0 6 4 13 8
15 5 2 44 50 88 108 43 58 81 107 84 110 19 19 95 126 128 180 39 65 102 216
102 245 0 18 -7 23 390 -241z m-1063 -4325 c318 0 598 -4 623 -9 25 -4 61 -10
80 -13 19 -3 67 -12 105 -22 39 -9 77 -18 85 -20 33 -7 209 -81 270 -114 61
-32 319 -199 330 -212 3 -4 20 -15 37 -25 39 -23 293 -195 293 -199 0 -3 -113
-154 -132 -175 -7 -9 -47 -61 -88 -115 -41 -55 -77 -102 -80 -105 -30 -27
-116 -189 -136 -255 -7 -24 -18 -40 -26 -39 -8 1 -164 101 -346 223 -183 121
-336 221 -341 221 -5 0 -11 4 -13 8 -1 5 -124 89 -273 187 -148 99 -271 183
-273 187 -2 4 -8 8 -13 8 -6 0 -38 19 -73 43 -34 23 -69 47 -78 52 -117 72
-548 367 -548 375 0 6 4 9 9 5 5 -3 270 -6 588 -6z"/>
</g>
</svg>
