<svg xmlns="http://www.w3.org/2000/svg" viewBox="0 0 53.64 60.1">
    <path
        d="M50.48,16.91H3.15A3.16,3.16,0,0,0,0,20.06v2.26a3.15,3.15,0,0,0,3.15,3.15H5.82L1.74,58.81a1.15,1.15,0,0,0,1,1.28h.14a1.15,1.15,0,0,0,1.14-1L8.14,25.47H46.05l4,33.61a1.15,1.15,0,0,0,1.14,1h.13a1.13,1.13,0,0,0,1-1.27L48.36,25.47h2.12a3.16,3.16,0,0,0,3.16-3.15V20.06A3.16,3.16,0,0,0,50.48,16.91Zm.85,5.41a.85.85,0,0,1-.85.85H3.15a.85.85,0,0,1-.85-.85V20.06a.85.85,0,0,1,.85-.85H50.48a.85.85,0,0,1,.85.85Z" />
    <path
        d="M36.47,16.09a8,8,0,1,0-8-8A8.06,8.06,0,0,0,36.47,16.09Zm0-13.79a5.75,5.75,0,1,1-5.74,5.75A5.76,5.76,0,0,1,36.47,2.3Z" />
    <path
        d="M9.43,16.09H20.6a2.46,2.46,0,0,0,2.46-2.46V2.46A2.46,2.46,0,0,0,20.6,0H9.43A2.46,2.46,0,0,0,7,2.46V13.63A2.46,2.46,0,0,0,9.43,16.09ZM9.27,2.46a.16.16,0,0,1,.16-.16H20.6a.16.16,0,0,1,.16.16V13.63a.16.16,0,0,1-.16.16H9.43a.16.16,0,0,1-.16-.16Z" />
</svg>