<svg id="Layer_1" data-name="Layer 1" xmlns="http://www.w3.org/2000/svg" viewBox="0 0 83.22 56.41">
    <path
        d="M83.18,3.61a3.13,3.13,0,0,0-.73-2.52A3.16,3.16,0,0,0,80.07,0h-.25a3.14,3.14,0,0,0-3.07,2.44L71.75,24a.85.85,0,0,1-.83.66H63.09l-.7-5.94h.78a3.16,3.16,0,0,0,3.15-3.15V12.79a3.16,3.16,0,0,0-3.15-3.15h-45A3.15,3.15,0,0,0,15,12.79v2.74a3.15,3.15,0,0,0,3.15,3.15H20.6l-.73,6H12.11a.83.83,0,0,1-.82-.66L6.39,2.94A3.15,3.15,0,0,0,3.32.5H3.15A3.11,3.11,0,0,0,.77,1.6,3.16,3.16,0,0,0,0,4.12l3.7,25a.88.88,0,0,1,0,.23l-3,23A3.15,3.15,0,0,0,3.82,55.9H4.9A3.15,3.15,0,0,0,8,53.54l4.57-17.79a.85.85,0,0,1,.82-.64h5.25L16.27,54.05a1.15,1.15,0,0,0,1,1.28h.14a1.15,1.15,0,0,0,1.14-1L20.9,35.11h1.58a.86.86,0,0,1,.85.77l1.74,17.19a3.14,3.14,0,0,0,3.14,2.83h.54a3.15,3.15,0,0,0,3.15-3.15V27.82a3.15,3.15,0,0,0-3.15-3.15H22.19l.73-6H60.08l.7,5.94H53.89a3.16,3.16,0,0,0-3.15,3.15V53.26a3.16,3.16,0,0,0,3.15,3.15h.63a3.15,3.15,0,0,0,3.14-2.83L59.44,36a.85.85,0,0,1,.85-.77H62l2.32,19.6a1.15,1.15,0,0,0,1.14,1h.14a1.15,1.15,0,0,0,1-1.28L64.35,35.22h5.32a.86.86,0,0,1,.82.64L75.16,54a3.14,3.14,0,0,0,3,2.37h1.18a3.14,3.14,0,0,0,3.12-3.56l-3.1-23.52a.89.89,0,0,1,0-.23ZM13.34,32.81a3.16,3.16,0,0,0-3.05,2.37L5.72,53a.84.84,0,0,1-.82.64H3.82a.82.82,0,0,1-.64-.29A.84.84,0,0,1,3,52.64l3-23a2.89,2.89,0,0,0,0-.88l-3.69-25a.86.86,0,0,1,.84-1h.17a.86.86,0,0,1,.83.66L9,24.53A3.15,3.15,0,0,0,12.11,27h7.48l-.72,5.84ZM28.75,27a.85.85,0,0,1,.85.85V52.75a.85.85,0,0,1-.85.85h-.54a.85.85,0,0,1-.85-.76L25.62,35.65a3.15,3.15,0,0,0-3.14-2.84H21.19L21.9,27ZM17.29,15.53V12.79a.85.85,0,0,1,.85-.85h45a.86.86,0,0,1,.85.85v2.74a.86.86,0,0,1-.85.85h-45A.85.85,0,0,1,17.29,15.53Zm43,17.39a3.15,3.15,0,0,0-3.14,2.84L55.37,53.34a.86.86,0,0,1-.85.77h-.63a.85.85,0,0,1-.85-.85V27.77a.85.85,0,0,1,.85-.85h7.16l.71,6Zm16.84-3.29,3.1,23.52a.88.88,0,0,1-.2.67.86.86,0,0,1-.64.29H78.21a.84.84,0,0,1-.82-.64L72.72,35.29a3.16,3.16,0,0,0-3-2.37h-5.6l-.7-6h7.55A3.14,3.14,0,0,0,74,24.48L79,3a.85.85,0,0,1,.83-.66h.25a.86.86,0,0,1,.64.29.88.88,0,0,1,.2.68L77.14,28.76A2.82,2.82,0,0,0,77.13,29.63Z" />
    </svg>