<svg xmlns="http://www.w3.org/2000/svg" viewBox="0 0 55.44 59.02">
    <path
        d="M55.11,52.84a1.18,1.18,0,0,0-.82-.33H52.78V1.19a1.21,1.21,0,0,0-.34-.84A1.21,1.21,0,0,0,51.6,0H4.21a1.18,1.18,0,0,0-.83.35A1.21,1.21,0,0,0,3,1.19V52.51H1.15a1.18,1.18,0,0,0-.81.33,1.15,1.15,0,0,0-.34.82v4.2A1.16,1.16,0,0,0,1.15,59H54.29a1.15,1.15,0,0,0,.82-.34,1.18,1.18,0,0,0,.33-.82v-4.2A1.18,1.18,0,0,0,55.11,52.84ZM51,29.19V52.51H28.27l.25-23.32ZM51,1.83V27.36H28.54l.27-25.53ZM26.69,29.19l-.25,23.32H4.87V29.19ZM27,1.83l-.27,25.53H4.87V1.83ZM53.61,54.34v2.85H1.83V54.34Z" />
    </svg>