<svg xmlns="http://www.w3.org/2000/svg" viewBox="0 0 80.97 58.15">
    <path d="M32.48,36.41a1.16,1.16,0,0,0-1.15,1.15V43a1.15,1.15,0,1,0,2.3,0V37.56A1.15,1.15,0,0,0,32.48,36.41Z" />
    <path d="M47.82,44.14A1.15,1.15,0,0,0,49,43V37.56a1.15,1.15,0,1,0-2.3,0V43A1.15,1.15,0,0,0,47.82,44.14Z" />
    <path
        d="M77.82,14.27H54.25a7.16,7.16,0,0,0,2.68-5.59V7.92a1.16,1.16,0,0,0-1.15-1.15H43.7a1.15,1.15,0,0,0-1.15,1.15v.76a7.16,7.16,0,0,0,2.68,5.59H28.76V4.19a1.89,1.89,0,1,1,3.78,0V6a1.15,1.15,0,1,0,2.3,0V4.19a4.19,4.19,0,0,0-8.38,0V14.27H3.15A3.16,3.16,0,0,0,0,17.42v3.94a3.15,3.15,0,0,0,3.15,3.15H8V55a3.16,3.16,0,0,0,3.15,3.16H70.59A3.16,3.16,0,0,0,73.74,55V24.51h4.08A3.15,3.15,0,0,0,81,21.36V17.42A3.16,3.16,0,0,0,77.82,14.27ZM54.61,9.07a4.89,4.89,0,0,1-9.75,0ZM10.25,55V24.51H39.34V55.84H11.1A.85.85,0,0,1,10.25,55Zm61.19,0a.86.86,0,0,1-.85.85H41.64V24.51h29.8Zm7.23-33.63a.85.85,0,0,1-.85.85H3.15a.85.85,0,0,1-.85-.85V17.42a.86.86,0,0,1,.85-.85H77.82a.86.86,0,0,1,.85.85Z" />
</svg>