<svg width="486" height="16" viewBox="0 0 486 16" fill="none" xmlns="http://www.w3.org/2000/svg">
  
    <path
        d="M0.284711 7.34725C-0.0936017 7.72556 -0.0936017 8.33893 0.284711 8.71724L6.44968 14.8822C6.82799 15.2605 7.44136 15.2605 7.81967 14.8822C8.19798 14.5039 8.19798 13.8905 7.81967 13.5122L2.3397 8.03225L7.81967 2.55227C8.19798 2.17396 8.19798 1.56059 7.81967 1.18228C7.44136 0.803968 6.82799 0.803968 6.44968 1.18228L0.284711 7.34725ZM485.116 8.71724C485.494 8.33893 485.494 7.72556 485.116 7.34725L478.951 1.18228C478.573 0.803968 477.96 0.803968 477.581 1.18228C477.203 1.56059 477.203 2.17396 477.581 2.55227L483.061 8.03225L477.581 13.5122C477.203 13.8905 477.203 14.5039 477.581 14.8822C477.96 15.2605 478.573 15.2605 478.951 14.8822L485.116 8.71724ZM0.969708 9.00098H484.431V7.06351H0.969708V9.00098Z"
        fill="#231F20" />
</svg>