<svg width="635" height="17" viewBox="0 0 635 17" fill="none" xmlns="http://www.w3.org/2000/svg">
  
    <path
        d="M0.288443 7.34709C-0.0909461 7.72432 -0.0926927 8.33769 0.284542 8.71707L6.43193 14.8996C6.80916 15.279 7.42253 15.2807 7.80192 14.9035C8.18131 14.5262 8.18305 13.9129 7.80582 13.5335L2.34147 8.03793L7.83703 2.57359C8.21642 2.19635 8.21816 1.58299 7.84093 1.2036C7.46369 0.824212 6.85033 0.822465 6.47094 1.1997L0.288443 7.34709ZM633.718 10.5208C634.097 10.1436 634.099 9.53022 633.722 9.15083L627.574 2.96833C627.197 2.58895 626.584 2.5872 626.204 2.96443C625.825 3.34167 625.823 3.95503 626.2 4.33442L631.665 9.82997L626.169 15.2943C625.79 15.6716 625.788 16.2849 626.165 16.6643C626.542 17.0437 627.156 17.0454 627.535 16.6682L633.718 10.5208ZM0.968727 9.00276L633.032 10.8026L633.037 8.86515L0.974244 7.0653L0.968727 9.00276Z"
        fill="#231F20" />
</svg>