<svg width="456" height="532" viewBox="0 0 456 532" fill="none" xmlns="http://www.w3.org/2000/svg">
<g opacity="0.3">
<path d="M414.239 210.341C410.147 210.341 406.054 209.523 402.781 207.067L163.79 48.2857C153.968 41.738 151.513 29.4611 158.061 19.6395C164.608 9.81798 176.885 7.3625 186.707 13.9102L425.698 172.692C435.519 179.24 437.974 191.517 431.427 201.338C427.334 207.067 420.787 210.341 414.239 210.341Z" fill="#ECECEC"/>
<path d="M280.79 518.909C276.698 518.909 272.605 518.091 269.331 515.636L30.3406 356.854C20.5191 350.306 18.0637 338.029 24.6114 328.208C31.1591 318.386 43.436 315.931 53.2576 322.479L292.248 481.26C302.07 487.808 304.525 500.085 297.978 509.906C293.885 515.636 287.338 518.909 280.79 518.909Z" fill="#F0F0F0"/>
<path d="M162.15 72.8428L140.87 100.671L49.2021 40.1043H144.962C153.147 40.1043 159.694 44.1968 162.968 51.563C167.879 58.1107 167.061 66.2951 162.15 72.8428ZM438.79 462.431L396.23 433.785C383.953 425.6 366.765 428.055 357.762 440.332L354.488 444.424C352.033 448.517 352.851 453.427 356.125 455.883L406.051 489.44H311.11C302.925 489.44 295.559 485.348 292.285 478.8C288.193 471.434 289.011 463.249 293.922 456.701L388.864 330.658L440.427 261.908C454.341 243.083 457.614 217.711 447.793 197.249C437.153 175.969 415.873 162.874 392.137 162.874H265.276C244.814 162.874 225.171 157.145 208.802 145.686L176.064 123.587L194.888 99.0336C208.802 80.209 212.076 54.8365 202.254 34.375C191.614 13.095 170.334 0 146.599 0H37.7437C21.3744 0 6.6421 9.82134 1.73133 25.3721C-3.17944 40.9229 2.54981 58.1107 16.4637 67.9322L185.885 180.88C209.621 196.431 237.448 204.615 265.276 204.615H391.319C399.504 204.615 406.87 208.708 410.144 215.255C414.236 222.621 413.417 230.806 408.507 237.354L305.381 374.855L270.187 351.938C246.451 336.388 218.624 328.203 190.796 328.203H64.7529C56.5683 328.203 49.2021 324.111 45.9283 317.563C41.836 310.197 42.6545 302.012 47.5652 295.464L108.131 215.255C117.953 202.16 114.679 183.335 100.765 174.332L98.3098 172.695C95.036 170.24 90.1252 171.058 86.8513 174.332L14.8268 270.911C0.912916 289.735 -1.54251 315.108 9.0975 335.569C19.7375 356.031 41.836 369.126 65.5714 369.126H189.977C210.439 369.126 230.082 374.855 246.451 386.313L279.19 408.412L260.365 432.966C246.451 451.79 243.178 477.163 252.999 497.625C263.639 518.904 284.919 532 308.654 532H418.328C434.698 532 448.611 521.36 453.522 506.627C459.251 489.44 452.704 472.252 438.79 462.431Z" fill="#E9E9E9"/>
</g>
</svg>
