<svg width="515" height="15" viewBox="0 0 515 15" fill="none" xmlns="http://www.w3.org/2000/svg">
   
    <path
        d="M0.490766 7.1578C0.112453 7.53611 0.112453 8.14948 0.490766 8.52779L6.65573 14.6928C7.03405 15.0711 7.64741 15.0711 8.02573 14.6928C8.40404 14.3144 8.40404 13.7011 8.02573 13.3228L2.54576 7.84279L8.02573 2.36282C8.40404 1.98451 8.40404 1.37114 8.02573 0.992828C7.64741 0.614515 7.03405 0.614515 6.65573 0.992828L0.490766 7.1578ZM514.32 8.52779C514.698 8.14948 514.698 7.53611 514.32 7.1578L508.155 0.992828C507.776 0.614515 507.163 0.614515 506.785 0.992828C506.406 1.37114 506.406 1.98451 506.785 2.36282L512.265 7.84279L506.785 13.3228C506.406 13.7011 506.406 14.3144 506.785 14.6928C507.163 15.0711 507.776 15.0711 508.155 14.6928L514.32 8.52779ZM1.17576 8.81152H513.635V6.87406H1.17576V8.81152Z"
        fill="#231F20" />
</svg>